<?xml version="1.0" encoding="UTF-8"?>
<svg xmlns="http://www.w3.org/2000/svg" xmlns:xlink="http://www.w3.org/1999/xlink" width="3000" height="2880" viewBox="0 0 3000 2880">
<path fill-rule="nonzero" fill="rgb(0%, 0%, 0%)" fill-opacity="1" d="M 1387.761719 0.351562 C 1387.519531 -0.25 1387.339844 -0.0703125 1387.308594 0.808594 C 1387.28125 1.589844 1387.449219 2.039062 1387.699219 1.789062 C 1387.949219 1.539062 1387.980469 0.890625 1387.761719 0.351562 Z M 1387.761719 0.351562 "/>
<path fill-rule="nonzero" fill="rgb(0%, 0%, 0%)" fill-opacity="1" d="M 1676.300781 2868.890625 C 1676.300781 2862.628906 1686.121094 2854.191406 1698.109375 2850.140625 C 1720.75 2842.492188 1800.929688 2773.972656 1800.929688 2762.277344 C 1800.929688 2758.609375 1778.828125 2766.890625 1751.820312 2780.671875 C 1691.390625 2811.496094 1507.390625 2839.929688 1308.640625 2849.148438 L 1159.078125 2856.089844 L 1242.460938 2825.867188 C 1380.179688 2775.957031 1503.039062 2704.453125 1579.320312 2629.8125 C 1657.191406 2553.617188 1676.71875 2511.1875 1610.761719 2561.496094 C 1546.941406 2610.171875 1392.71875 2678.574219 1284.769531 2706.085938 C 1230.511719 2719.914062 1184.050781 2729.164062 1181.53125 2726.640625 C 1179 2724.113281 1205.628906 2700.273438 1240.710938 2673.652344 C 1301.519531 2627.5 1382.820312 2533.261719 1371.539062 2521.988281 C 1368.621094 2519.0625 1346.121094 2536.191406 1321.550781 2560.054688 C 1203.949219 2674.261719 932.648438 2757.078125 682.886719 2755.007812 C 552.871094 2753.929688 550.253906 2753.371094 604.464844 2738.339844 C 635.3125 2729.785156 687.355469 2710.898438 720.117188 2696.371094 C 791.917969 2664.53125 928.507812 2570.539062 928.507812 2552.972656 C 928.507812 2546.046875 918.695312 2549.039062 906.699219 2559.617188 C 864.9375 2596.4375 759.683594 2643.199219 673.011719 2663.429688 C 610.417969 2678.042969 547.039062 2682.367188 448.675781 2678.742188 C 299.761719 2673.25 226.289062 2652.824219 313.410156 2641.136719 C 376.15625 2632.722656 549.625 2550.296875 559.664062 2524.128906 C 565.949219 2507.753906 562.015625 2505.5625 539.21875 2512.726562 C 429.121094 2547.34375 374.929688 2556.59375 287.054688 2555.761719 C 182.605469 2554.773438 149.253906 2545.910156 56.085938 2494.394531 L 0 2463.382812 L 43.621094 2460.273438 C 270.175781 2444.132812 436.578125 2385.25 546.675781 2282.257812 C 611.484375 2221.632812 636.003906 2185.292969 702.570312 2051.21875 C 746.015625 1963.710938 806.535156 1829.929688 837.058594 1753.929688 C 963.769531 1438.398438 1141.960938 1204.578125 1402.109375 1012.460938 C 1583.730469 878.339844 1896.160156 746.890625 2023.550781 751.011719 C 2067.480469 752.429688 2067.121094 752.769531 2011.789062 762.140625 C 1909.25 779.488281 1747.410156 842.789062 1614.039062 917.710938 C 1516.589844 972.449219 1454.140625 1019.328125 1369.121094 1101.578125 C 1154.839844 1308.878906 1066.050781 1492.070312 1041.378906 1777.761719 C 1025.878906 1957.375 1024.308594 2166.460938 1038.390625 2175.167969 C 1043.988281 2178.625 1058.28125 2129.882812 1070.148438 2066.847656 C 1133.230469 1731.949219 1267.71875 1462.660156 1486.039062 1234.148438 C 1706.160156 1003.761719 1996.359375 887.941406 2317.5 902.320312 C 2540.71875 912.320312 2756.421875 995.160156 2879.378906 1118.128906 C 2955.96875 1194.71875 2967.058594 1191.5 2907.898438 1109.839844 C 2782.988281 937.410156 2571.859375 800.929688 2363.21875 757.738281 C 2270.078125 738.460938 2237.160156 724.621094 2284.480469 724.621094 C 2363.429688 724.621094 2575.320312 777.949219 2657.828125 818.589844 C 2834.421875 905.570312 2965.339844 1070.300781 2994.820312 1242.609375 C 3008.230469 1321.039062 2993.011719 1380.160156 2978.539062 1305.808594 C 2961.179688 1216.679688 2881.050781 1150.671875 2724.980469 1096.980469 C 2638.621094 1067.261719 2564.421875 1067.398438 2446.730469 1097.5 C 2260.578125 1145.109375 2066.199219 1257.660156 1989.128906 1362.460938 C 1874.351562 1518.539062 1858.328125 1775.730469 1951.800781 1961.855469 C 1979.230469 2016.484375 2075.589844 2149.117188 2082.679688 2142.019531 C 2084.898438 2139.800781 2071.609375 2101.796875 2053.128906 2057.574219 C 2023.058594 1985.59375 2019.519531 1961.5 2019.289062 1827.609375 C 2019.058594 1695.960938 2022.671875 1669.839844 2049.359375 1609.5 C 2083.25 1532.859375 2151.121094 1422.558594 2164.378906 1422.558594 C 2169.128906 1422.558594 2169.878906 1494.058594 2166.058594 1581.460938 C 2161.171875 1692.96875 2164.128906 1762.671875 2175.980469 1815.148438 C 2191.128906 1882.21875 2193.199219 1885.429688 2196.058594 1846.308594 C 2204.390625 1732.5 2230.078125 1584.660156 2251.609375 1526.589844 C 2295.378906 1408.539062 2417.089844 1283.910156 2559.28125 1211.578125 C 2620.839844 1180.261719 2641.300781 1183.691406 2590.699219 1216.851562 C 2534.238281 1253.839844 2447.101562 1339.050781 2416.890625 1386.800781 C 2385.941406 1435.730469 2344.460938 1563.769531 2352.121094 1586.75 C 2354.71875 1594.539062 2382.480469 1564.980469 2413.828125 1521.078125 C 2474.171875 1436.578125 2587.78125 1322.851562 2611.859375 1322.851562 C 2619.75 1322.851562 2598.519531 1347.738281 2564.691406 1378.160156 C 2530.859375 1408.570312 2484.210938 1468.859375 2461.019531 1512.128906 C 2423.269531 1582.570312 2418.328125 1603.359375 2413.859375 1710.621094 C 2410.191406 1798.691406 2414.480469 1849.71875 2430.050781 1903.265625 C 2493.378906 2121.113281 2641.089844 2281.261719 2826.03125 2332.578125 L 2903.929688 2354.195312 L 2900.308594 2408.054688 C 2895.769531 2475.59375 2864.699219 2526.351562 2781.121094 2602.707031 C 2667.441406 2706.5625 2449.910156 2795.910156 2274.539062 2810.777344 L 2181.058594 2818.699219 L 2244.898438 2788.820312 C 2329.789062 2749.082031 2406.71875 2677.757812 2443.96875 2604.234375 C 2478.089844 2536.910156 2468.191406 2524.664062 2425.890625 2581.871094 C 2410.589844 2602.566406 2368.878906 2638.816406 2333.191406 2662.425781 C 2270.5 2703.90625 1965.519531 2824.304688 1850.789062 2852.871094 C 1767.96875 2873.488281 1676.308594 2881.90625 1676.308594 2868.890625 Z M 2436.558594 2875.488281 C 2436.558594 2872.589844 2457.589844 2863.589844 2483.289062 2855.484375 C 2509 2847.378906 2576.601562 2821.074219 2633.519531 2797.027344 C 2741.808594 2751.285156 2780.691406 2749.105469 2709.039062 2792.796875 C 2638.351562 2835.902344 2436.558594 2897.140625 2436.558594 2875.488281 Z M 2436.558594 2875.488281 "/>
</svg>
